<svg width="50" height="50" viewBox="0 0 50 50" fill="none" xmlns="http://www.w3.org/2000/svg">
<path d="M34.5753 2.16664L47.7982 15.3875C47.9345 15.5235 48.0304 15.6946 48.0752 15.8819C48.1201 16.0691 48.1122 16.2651 48.0524 16.4481C47.9927 16.6311 47.8833 16.794 47.7366 16.9186C47.5898 17.0433 47.4114 17.1248 47.2211 17.1541L44.1503 17.6333L32.367 5.84998L32.8086 2.75623C32.8361 2.56492 32.9162 2.38502 33.0401 2.23665C33.1639 2.08828 33.3266 1.9773 33.51 1.91612C33.6933 1.85494 33.89 1.84597 34.0782 1.89021C34.2663 1.93445 34.4384 2.03017 34.5753 2.16664ZM9.57321 41.9791C17.3274 35.0396 26.2295 32.9625 35.9128 30.4791L36.842 22.1083L27.8899 13.1562L19.519 14.0854C17.0357 23.7687 14.9586 32.6687 8.01904 40.425L5.11279 37.5208C11.0045 30.6458 13.217 23.0354 16.1607 10.2687L29.419 8.79581L41.2045 20.5812L39.7315 33.8396C26.9649 36.7854 19.3524 38.9958 12.4795 44.8875L9.57321 41.9791ZM20.5815 29.4166C20.1836 29.0323 19.8662 28.5725 19.6478 28.0642C19.4294 27.5558 19.3145 27.0091 19.3097 26.4558C19.3049 25.9026 19.4103 25.3539 19.6198 24.8418C19.8293 24.3298 20.1387 23.8645 20.5299 23.4733C20.9211 23.0821 21.3863 22.7727 21.8984 22.5632C22.4105 22.3537 22.9591 22.2483 23.5124 22.2531C24.0656 22.2579 24.6124 22.3728 25.1207 22.5912C25.6291 22.8096 26.0889 23.127 26.4732 23.525C27.2218 24.3126 27.633 25.3615 27.6193 26.448C27.6056 27.5345 27.168 28.5727 26.3998 29.3412C25.6316 30.1096 24.5936 30.5476 23.5071 30.5617C22.4205 30.5758 21.3715 30.1649 20.5836 29.4166H20.5815Z" fill="black"/>
</svg>
