<svg width="50" height="50" viewBox="0 0 50 50" fill="none" xmlns="http://www.w3.org/2000/svg">
<g clip-path="url(#clip0_935_191)">
<path d="M21.8292 24.2333L12.4334 9.49994L16.4563 8.42078L30.9375 21.7958L41.9 18.8583C42.7007 18.6439 43.5536 18.7563 44.2714 19.1709C44.9891 19.5854 45.5127 20.2681 45.7271 21.0687C45.9415 21.8693 45.8291 22.7223 45.4145 23.44C45 24.1577 44.3173 24.6814 43.5167 24.8958L12.325 33.2499L10.7084 27.2124L11.2104 27.077L16.35 32.1708L10.8792 33.6374C10.4306 33.7577 9.95464 33.7247 9.52698 33.5435C9.09931 33.3623 8.74446 33.0434 8.51878 32.6374L3.0542 22.7916L6.07295 21.9833L11.2104 27.077L21.8292 24.2312V24.2333ZM8.33337 39.5833H41.6667V43.7499H8.33337V39.5833Z" fill="black"/>
</g>
<defs>
<clipPath id="clip0_935_191">
<rect width="50" height="50" fill="white"/>
</clipPath>
</defs>
</svg>
