<svg width="45" height="45" viewBox="0 0 45 45" fill="none" xmlns="http://www.w3.org/2000/svg">
<g clip-path="url(#clip0_73_464)">
<path d="M22.5 3.75C12.1406 3.75 3.75 12.1406 3.75 22.5C3.74788 26.4361 4.98528 30.273 7.28666 33.4663C9.58804 36.6595 12.8365 39.047 16.5713 40.29C17.5088 40.4531 17.8594 39.8906 17.8594 39.3975C17.8594 38.9531 17.835 37.4775 17.835 35.9062C13.125 36.7744 11.9063 34.7588 11.5313 33.7031C11.3194 33.1631 10.4063 31.5 9.60938 31.0538C8.95313 30.7031 8.01563 29.835 9.585 29.8125C11.0625 29.7881 12.1163 31.1719 12.4688 31.7344C14.1563 34.5694 16.8525 33.7725 17.9288 33.2812C18.0938 32.0625 18.585 31.2431 19.125 30.7744C14.9531 30.3056 10.5938 28.6875 10.5938 21.5156C10.5938 19.4756 11.3194 17.79 12.5156 16.4756C12.3281 16.0069 11.6719 14.085 12.7031 11.5069C12.7031 11.5069 14.2725 11.0156 17.8594 13.4306C19.3857 13.007 20.9628 12.7938 22.5469 12.7969C24.1406 12.7969 25.7344 13.0069 27.2344 13.4288C30.8194 10.9913 32.3906 11.5087 32.3906 11.5087C33.4219 14.0869 32.7656 16.0087 32.5781 16.4775C33.7725 17.79 34.5 19.4531 34.5 21.5156C34.5 28.7119 30.1181 30.3056 25.9463 30.7744C26.625 31.3594 27.2119 32.4844 27.2119 34.2431C27.2119 36.75 27.1875 38.7656 27.1875 39.3994C27.1875 39.8906 27.54 40.4756 28.4775 40.2881C32.1994 39.0315 35.4336 36.6394 37.7248 33.4484C40.016 30.2575 41.2489 26.4283 41.25 22.5C41.25 12.1406 32.8594 3.75 22.5 3.75Z" fill="black"/>
</g>
<defs>
<clipPath id="clip0_73_464">
<rect width="45" height="45" fill="white"/>
</clipPath>
</defs>
</svg>
