<svg width="50" height="50" viewBox="0 0 50 50" fill="none" xmlns="http://www.w3.org/2000/svg">
<g clip-path="url(#clip0_935_183)">
<path d="M25 45.8332L5.85 26.6832C1.30833 21.3332 1.54583 13.3082 6.58542 8.2665C9.00211 5.84986 12.2432 4.43639 15.6586 4.30966C19.0739 4.18292 22.4108 5.35228 25 7.58317C27.5865 5.35228 30.9206 4.18126 34.334 4.30476C37.7475 4.42826 40.9882 5.83715 43.4068 8.24912C45.8253 10.6611 47.243 13.8979 47.3759 17.3111C47.5087 20.7242 46.3467 24.0614 44.1229 26.654L25 45.8332ZM40.9625 23.9394C42.5017 22.1444 43.3058 19.8341 43.2137 17.4713C43.1215 15.1085 42.1399 12.8678 40.4655 11.1982C38.7911 9.52853 36.5477 8.55328 34.1846 8.46782C31.8216 8.38236 29.5135 9.193 27.7229 10.7373L25 13.0873L22.2771 10.7373C20.4865 9.193 18.1784 8.38236 15.8154 8.46782C13.4523 8.55328 11.2089 9.52853 9.53448 11.1982C7.8601 12.8678 6.87848 15.1085 6.78632 17.4713C6.69416 19.8341 7.49826 22.1444 9.0375 23.9394L9.275 24.2144L25 39.9415L40.725 24.2144L40.9625 23.9394Z" fill="black"/>
</g>
<defs>
<clipPath id="clip0_935_183">
<rect width="50" height="50" fill="white"/>
</clipPath>
</defs>
</svg>
