<svg width="42" height="42" viewBox="0 0 42 42" fill="none" xmlns="http://www.w3.org/2000/svg">
<g clip-path="url(#clip0_149_160)">
<path d="M20.9998 38.4999L4.91378 22.4139C1.09878 17.9199 1.29828 11.1789 5.53153 6.94395C7.56155 4.91397 10.2841 3.72666 13.153 3.6202C16.0218 3.51374 18.8249 4.496 20.9998 6.36995C23.1725 4.49601 25.9731 3.51235 28.8404 3.61609C31.7077 3.71983 34.4299 4.9033 36.4615 6.92935C38.493 8.9554 39.6839 11.6744 39.7955 14.5414C39.9071 17.4084 38.931 20.2117 37.063 22.3894L20.9998 38.4999ZM34.4083 20.1092C35.7012 18.6014 36.3767 16.6607 36.2993 14.676C36.2219 12.6912 35.3973 10.809 33.9908 9.40655C32.5843 8.00405 30.6998 7.18484 28.7149 7.11305C26.7299 7.04127 24.7911 7.72221 23.287 9.01945L20.9998 10.9934L18.7125 9.01945C17.2084 7.72221 15.2696 7.04127 13.2847 7.11305C11.2997 7.18484 9.41522 8.00405 8.00874 9.40655C6.60226 10.809 5.7777 12.6912 5.70028 14.676C5.62287 16.6607 6.29831 18.6014 7.59128 20.1092L7.79078 20.3402L20.9998 33.5509L34.2088 20.3402L34.4083 20.1092Z" fill="black"/>
</g>
<defs>
<clipPath id="clip0_149_160">
<rect width="42" height="42" fill="white"/>
</clipPath>
</defs>
</svg>
