<svg width="45" height="45" viewBox="0 0 45 45" fill="none" xmlns="http://www.w3.org/2000/svg">
<g clip-path="url(#clip0_73_463)">
<path d="M34.3781 34.3856H29.3813V26.5537C29.3813 24.6862 29.3438 22.2825 26.775 22.2825C24.1706 22.2825 23.7731 24.315 23.7731 26.4169V34.3856H18.7744V18.2812H23.5744V20.475H23.64C24.3112 19.2113 25.9425 17.8744 28.38 17.8744C33.4425 17.8744 34.38 21.2081 34.38 25.545V34.3856H34.3781ZM13.1306 16.0781C12.7492 16.0786 12.3714 16.0038 12.0189 15.858C11.6664 15.7122 11.3461 15.4983 11.0765 15.2284C10.8068 14.9586 10.5931 14.6382 10.4475 14.2856C10.3019 13.9331 10.2274 13.5552 10.2281 13.1737C10.2285 12.5997 10.3991 12.0386 10.7183 11.5615C11.0376 11.0844 11.4911 10.7127 12.0216 10.4933C12.5521 10.274 13.1358 10.2169 13.6987 10.3293C14.2617 10.4416 14.7787 10.7184 15.1843 11.1246C15.59 11.5308 15.8661 12.0481 15.9777 12.6112C16.0893 13.1743 16.0315 13.7579 15.8115 14.2881C15.5914 14.8183 15.2191 15.2714 14.7416 15.59C14.2641 15.9086 13.7028 16.0785 13.1287 16.0781H13.1306ZM15.6356 34.3856H10.6237V18.2812H15.6375V34.3856H15.6356ZM36.8813 5.625H8.11687C6.73687 5.625 5.625 6.7125 5.625 8.05687V36.9431C5.625 38.2875 6.73875 39.375 8.115 39.375H36.8738C38.25 39.375 39.375 38.2875 39.375 36.9431V8.05687C39.375 6.7125 38.25 5.625 36.8738 5.625H36.8794H36.8813Z" fill="black"/>
</g>
<defs>
<clipPath id="clip0_73_463">
<rect width="45" height="45" fill="white"/>
</clipPath>
</defs>
</svg>
