<svg width="50" height="50" viewBox="0 0 50 50" fill="none" xmlns="http://www.w3.org/2000/svg">
<path fill-rule="evenodd" clip-rule="evenodd" d="M29.3588 49.3303L31.0299 49.3395C30.6316 49.5705 29.8991 49.4873 29.3588 49.4873V49.3349V49.3303ZM28.9009 49.1778C29.0475 49.03 29.3863 49.3718 29.0795 49.261C29.0749 49.261 28.6949 49.3857 28.9009 49.1778ZM24.7711 48.097C24.7849 48.0832 24.8169 48.1201 24.8169 48.1432C24.8169 48.1525 24.8352 48.1617 24.8352 48.1617C24.8307 48.1571 24.5651 48.3049 24.7711 48.097ZM24.3133 47.9446C24.327 47.9308 24.3591 47.9677 24.3591 47.9908C24.3591 48 24.3774 48.0093 24.3774 48.0093C24.3728 48.0047 24.1073 48.1525 24.3133 47.9446ZM23.8554 47.7922C24.002 47.6444 24.3408 47.9862 24.034 47.8753C24.0294 47.8753 23.6494 48 23.8554 47.7922ZM28.5988 47.6398C28.6125 47.6259 28.6445 47.6629 28.6445 47.686C28.6445 47.6952 28.6629 47.7044 28.6629 47.7044C28.6583 47.6998 28.3927 47.8476 28.5988 47.6398ZM23.3976 47.6398L23.7043 47.7137L23.3976 47.6398ZM27.8204 47.6028L27.3763 47.649C27.4587 47.589 27.3168 47.3211 27.8204 47.6028ZM26.7628 47.3349C26.9093 47.1871 27.2435 47.5289 26.9413 47.4181C26.9368 47.4181 26.5567 47.5428 26.7628 47.3349ZM35.6359 47.1825C35.7824 47.0347 36.1166 47.3765 35.8145 47.2656C35.8099 47.2656 35.4299 47.3904 35.6359 47.1825ZM25.9982 47.1825C26.1447 47.0347 26.4789 47.3765 26.1767 47.2656C26.1722 47.2656 25.7876 47.3904 25.9982 47.1825ZM36.2448 47.0301C36.2586 47.0162 36.2906 47.0532 36.2906 47.0763C36.2906 47.0855 36.3089 47.0947 36.3089 47.0947C36.3044 47.0901 36.0388 47.2379 36.2448 47.0301ZM36.8584 46.8777C36.8721 46.8638 36.9042 46.9007 36.9042 46.9238C36.9042 46.9331 36.9225 46.9423 36.9225 46.9423C36.9179 46.9377 36.6523 47.0855 36.8584 46.8777ZM24.9268 46.8777C25.0733 46.7298 25.4121 47.0716 25.1054 46.9608C25.1008 46.9608 24.7208 47.0855 24.9268 46.8777ZM35.9381 46.8777C36.2128 46.7021 36.0205 46.582 36.5379 46.8361L35.9381 46.8777ZM36.7027 46.5682C36.7164 46.5543 36.7485 46.5913 36.7485 46.6144C36.7485 46.6236 36.7668 46.6329 36.7668 46.6329C36.7622 46.6282 36.4967 46.776 36.7027 46.5682ZM24.1622 46.5682C24.1759 46.5543 24.208 46.5913 24.208 46.6144C24.208 46.6236 24.2263 46.6329 24.2263 46.6329C24.2217 46.6282 23.9562 46.776 24.1622 46.5682ZM35.1735 46.5682C35.4482 46.3927 35.2559 46.2726 35.7733 46.5266L35.1735 46.5682ZM23.7043 46.4158L24.0111 46.4897L23.7043 46.4158ZM35.9427 46.2633C35.9564 46.2495 35.9885 46.2864 35.9885 46.3095C35.9885 46.3188 36.0068 46.328 36.0068 46.328C36.0022 46.3234 35.7366 46.4712 35.9427 46.2633ZM28.2828 46.3049L27.8387 46.4389C28.0539 46.2495 27.5503 46.2726 28.2828 46.3049ZM23.7089 46.4204L23.4022 46.268L23.7089 46.4204ZM27.2252 46.1109C27.2389 46.0971 27.271 46.134 27.271 46.1571C27.271 46.1663 27.2893 46.1756 27.2893 46.1756C27.2847 46.171 27.0192 46.3188 27.2252 46.1109ZM23.4022 46.2633L23.0954 46.1109L23.4022 46.2633ZM26.7674 45.9539C26.7811 45.94 26.8131 45.977 26.8131 46.0001C26.8131 46.0093 26.8315 46.0185 26.8315 46.0185C26.8269 46.0139 26.5613 46.1617 26.7674 45.9539ZM26.1538 45.8015C26.1676 45.7876 26.1996 45.8246 26.1996 45.8476C26.1996 45.8569 26.2179 45.8661 26.2179 45.8661C26.2134 45.8615 25.9478 46.0093 26.1538 45.8015ZM37.9297 45.1825C37.9435 45.1687 37.9755 45.2056 37.9755 45.2287C37.9755 45.238 37.9938 45.2472 37.9938 45.2472C37.9893 45.2426 37.7237 45.3904 37.9297 45.1825ZM38.2365 45.0301C38.2502 45.0162 38.2823 45.0532 38.2823 45.0763C38.2823 45.0855 38.3006 45.0948 38.3006 45.0948C38.296 45.0901 38.0305 45.238 38.2365 45.0301ZM38.5433 44.8777C38.557 44.8638 38.589 44.9008 38.589 44.9239C38.589 44.9331 38.6074 44.9423 38.6074 44.9423C38.6028 44.9377 38.3372 45.0855 38.5433 44.8777ZM39.1568 44.7253L38.8821 44.8869L39.1568 44.7253ZM39.4635 44.5728L39.1568 44.7253L39.4635 44.5728ZM39.4635 44.5728L39.5047 44.4296L39.6192 44.5174L39.4681 44.5682L39.4635 44.5728ZM39.9214 44.2634L39.8802 44.4066L39.7657 44.3188L39.9168 44.268L39.9214 44.2634ZM40.2281 44.111L39.9214 44.2634L40.2281 44.111ZM40.5349 43.9585L40.2281 44.111L40.5349 43.9585ZM40.686 43.8061L40.5349 43.9585L40.686 43.8061ZM40.686 43.8061C40.9241 43.4643 41.2217 43.2934 41.6017 43.1872C41.2949 43.6583 41.2217 43.6722 40.686 43.8061ZM23.4022 47.6675C21.5753 47.5058 17.4547 44.3096 16.5207 42.8823C16.9648 43.0024 19.0618 45.007 19.7623 45.4781C20.3666 45.8846 20.916 46.2264 21.5387 46.619C22.1248 46.9885 22.9306 47.2472 23.4067 47.6675H23.4022ZM41.6017 43.1918C41.8901 42.7438 41.7619 42.85 42.2152 42.7299C41.9268 43.1779 42.055 43.0717 41.6017 43.1918ZM16.5161 42.8823L16.365 42.7299L16.5161 42.8823ZM16.365 42.7299L16.2139 42.5775L16.365 42.7299ZM16.2139 42.5775L16.0628 42.4251L16.2139 42.5775ZM42.2152 42.7299L42.8287 42.111C42.728 42.6052 42.6639 42.6098 42.2152 42.7299ZM34.7202 42.268L34.6836 42.4112L34.5691 42.3234L34.7202 42.2726V42.268ZM16.0583 42.4204L15.9163 42.3789L16.0033 42.2634L16.0537 42.4158L16.0583 42.4204ZM34.7202 42.268L34.9949 42.1064L34.7202 42.268ZM42.8287 42.1156L42.8699 41.9724L42.9844 42.0602L42.8333 42.111L42.8287 42.1156ZM45.7361 38.7207C45.7498 38.7069 45.7819 38.7438 45.7819 38.7669C45.7819 38.7762 45.8002 38.7854 45.8002 38.7854C45.7956 38.7808 45.53 38.9286 45.7361 38.7207ZM46.1939 38.2588L46.1573 38.402L46.0428 38.3143L46.1939 38.2635V38.2588ZM46.345 37.9494L46.1939 38.2588L46.345 37.9494ZM46.345 37.9494L46.6518 37.4875L46.345 37.9494ZM46.8029 37.178L46.6518 37.4875L46.8029 37.178ZM12.8487 37.178C12.8625 37.1642 12.8945 37.2011 12.8945 37.2242C12.8945 37.2335 12.9128 37.2427 12.9128 37.2427C12.9083 37.2381 12.6427 37.3859 12.8487 37.178ZM46.9585 36.8686L46.8074 37.178L46.9585 36.8686ZM47.1096 36.5591L46.9585 36.8686L47.1096 36.5591ZM47.1096 36.5591L47.1829 36.2496L47.1096 36.5591ZM47.4164 35.7877L47.3431 36.0972L47.4164 35.7877ZM47.4164 35.7877L47.4896 35.4783L47.4164 35.7877ZM47.5675 35.1688C47.5812 35.155 47.6133 35.1919 47.6133 35.215C47.6133 35.2242 47.6316 35.2335 47.6316 35.2335C47.627 35.2289 47.3614 35.3767 47.5675 35.1688ZM47.7186 34.8594C47.7186 34.5037 47.9063 34.8316 47.8147 34.8594C47.8147 34.8594 47.7186 35.2566 47.7186 34.8594ZM47.8696 34.2404C47.8834 34.2266 47.9154 34.2635 47.9154 34.2866C47.9154 34.2959 47.9337 34.3051 47.9337 34.3051C47.9292 34.3005 47.6636 34.4483 47.8696 34.2404ZM48.1764 33.312C48.1764 32.9564 48.3641 33.2843 48.2726 33.312C48.2726 33.312 48.1764 33.7093 48.1764 33.312ZM48.3275 32.5407C48.3412 32.5268 48.3733 32.5638 48.3733 32.5869C48.3733 32.5961 48.3916 32.6053 48.3916 32.6053C48.387 32.6007 48.1215 32.7485 48.3275 32.5407ZM48.4603 31.7739C48.6297 31.9679 48.6159 31.5569 48.5976 32.222L48.4603 31.7739ZM48.6755 31.6031C48.6388 31.2705 48.8311 28.065 48.9044 27.9218C49.0097 28.8964 49.115 30.8548 48.6755 31.6031ZM36.0938 41.8061L35.6359 41.9586C35.5398 42.4297 35.1826 41.9632 35.1781 41.9586C34.3951 41.9586 34.0609 42.1803 33.3375 42.2634C32.7011 42.3373 31.822 42.365 31.2314 42.4574C30.2104 42.6144 27.9715 42.6422 27.2206 42.1156C25.7692 41.9863 23.4617 40.4528 22.6605 40.4436C22.7978 41.2703 23.5212 42.0186 23.9974 42.693C21.5753 42.9608 19.4921 40.1387 17.7798 38.887L18.0224 39.6122C17.3036 39.5013 17.354 38.9517 16.8229 38.5683L16.5756 38.73L15.9621 38.0972C16.1269 39.6953 19.4876 42.7114 20.7741 43.6906C22.5323 45.0301 26.3141 46.6005 28.4477 46.6005C28.8048 46.1294 28.8552 46.5913 29.3817 46.7391C29.4412 46.7576 29.6793 46.7807 29.7846 46.7991C31.8449 47.1733 33.6488 46.6005 35.1781 46.6005C34.3402 47.1871 32.9392 47.1363 31.8266 47.2564C32.985 47.8014 34.7248 46.9331 35.9427 46.91C34.0655 48.2264 28.2874 47.6536 25.4442 46.6975C24.8123 46.4851 22.9077 45.6075 22.4956 45.5613L23.0954 46.1386C20.6184 45.5336 17.2532 42.1664 15.7973 40.2265C14.9274 39.0671 13.9384 37.4505 13.3707 36.0372C12.8029 34.6192 11.933 32.282 11.933 30.7347L11.4752 30.6931C11.6766 31.5522 11.7133 32.5915 12.0567 33.9725C12.2947 34.9286 12.5878 36.1342 12.9907 36.9886C12.4596 36.8547 12.0429 35.5106 11.8277 34.9748C11.6629 34.5591 11.5622 34.2173 11.4157 33.8432C11.2096 33.3074 11.1318 33.021 10.6968 32.8455C10.239 33.6815 10.6282 34.8732 10.88 35.6215C12.8854 41.5706 17.4959 46.9839 23.3426 48.9792C25.8929 49.8476 26.9322 50 29.6747 50C33.4794 50 38.2411 48.9469 41.3911 47.007C45.9055 44.2218 48.8723 38.4621 49.7285 33.1873C50.0902 30.961 50.0902 28.5869 49.7285 26.356C48.474 18.6333 43.2042 13.0352 35.9289 10.6426C34.2715 10.0976 31.4328 9.4648 29.7159 9.56642C29.2993 9.00753 28.9742 8.14381 28.4294 7.4094C27.3122 5.90827 24.4827 3.06305 22.7978 2.90601C23.0817 3.30785 24.1942 3.84364 24.6704 4.25934C25.8562 5.29396 28.9696 8.35627 29.194 9.52023C28.0997 9.60799 26.4148 9.39552 25.5632 9.81584C26.7857 9.94978 27.9349 9.57565 29.3359 9.74193C29.8121 10.1669 29.606 10.1761 29.9494 10.4625L29.8166 9.74193C30.2974 9.8066 30.7232 9.82045 31.181 9.88974C31.6526 9.96364 32.0281 10.1392 32.5637 10.1946C32.4767 10.7165 32.2753 10.5133 33.9739 11.1553C33.1452 11.2846 31.268 10.8135 30.2974 10.7766C29.8395 10.7581 27.2573 10.8366 27.1245 11.6726C28.0081 12.3146 32.5271 11.8851 34.2624 12.7534C33.5618 12.832 32.9895 12.6703 32.2845 12.6426C31.5748 12.6149 31.1444 12.4624 30.2928 12.4809C29.6014 12.4948 27.1611 12.7581 26.7948 13.2199C28.1959 13.377 28.8552 13.1322 31.2314 13.4001C32.7148 13.5664 33.571 13.4232 35.0407 14.1853C35.7229 14.5409 35.9198 14.3931 36.4234 14.6426C36.8034 14.8319 38.5478 15.8758 38.7859 16.116C41.4781 18.8411 42.8287 19.8111 44.3076 23.6632C44.5365 24.2637 44.8707 24.5593 44.9852 24.9888L45.1729 28.259C45.0081 29.3352 45.1546 30.5407 44.8982 31.6954C44.564 33.1966 43.6986 35.6307 42.6364 36.8224C42.6639 37.2889 42.6227 36.693 42.815 37.312C41.9451 37.663 40.7135 39.178 39.8252 39.8524C39.143 40.3697 39.0103 40.7253 38.2365 41.0255C37.655 41.2472 36.6752 41.7692 36.1121 41.8154L36.0938 41.8061Z" fill="#40586F"/>
<path fill-rule="evenodd" clip-rule="evenodd" d="M13.3023 30.1804C13.4488 30.0326 13.783 30.3744 13.4809 30.2636C13.4763 30.2636 13.0963 30.3883 13.3023 30.1804ZM12.382 30.028L12.8307 30.0511C12.3271 30.3282 12.5606 30.1435 12.382 30.028ZM12.382 30.028L11.9333 30.0049C12.437 29.7278 12.2035 29.9125 12.382 30.028ZM11.6174 29.7185C11.6311 29.7047 11.6632 29.7416 11.6632 29.7647C11.6632 29.774 11.6815 29.7832 11.6815 29.7832C11.6769 29.7786 11.4114 29.9264 11.6174 29.7185ZM8.10112 27.8664L8.24306 27.9033L8.15606 28.0188L8.1057 27.8664H8.10112ZM8.10112 27.8664L7.95919 27.8248L8.04618 27.7093L8.09654 27.8617L8.10112 27.8664ZM7.4876 27.4045L7.62953 27.4414L7.54254 27.5569L7.49218 27.4045H7.4876ZM7.4876 27.4045L7.33651 27.2521L7.4876 27.4045ZM7.33651 27.2521L7.19458 27.2105L7.28157 27.095L7.33193 27.2474L7.33651 27.2521ZM4.27808 23.5477L4.42001 23.5847L4.33302 23.7001L4.28265 23.5477H4.27808ZM4.27808 23.5477L4.13614 23.5061L4.22313 23.3907L4.2735 23.5431L4.27808 23.5477ZM3.97132 23.0858L4.11325 23.1228L4.02626 23.2383L3.9759 23.0858H3.97132ZM3.97132 23.0858L3.81107 22.8087L3.97132 23.0858ZM3.66456 22.4669C3.67829 22.453 3.71034 22.49 3.71034 22.5131C3.71034 22.5223 3.72866 22.5316 3.72866 22.5316C3.72408 22.5269 3.45853 22.6747 3.66456 22.4669ZM3.51347 22.1574C3.5272 22.1436 3.55925 22.1805 3.55925 22.2036C3.55925 22.2129 3.57757 22.2221 3.57757 22.2221C3.57299 22.2175 3.30744 22.3653 3.51347 22.1574ZM3.36238 21.848C3.36238 21.4923 3.55009 21.8203 3.45852 21.848C3.45852 21.848 3.36238 22.2498 3.36238 21.848ZM3.21128 21.3861C3.22502 21.3722 3.25707 21.4092 3.25707 21.4323C3.25707 21.4415 3.27538 21.4508 3.27538 21.4508C3.27081 21.4461 3.00525 21.5939 3.21128 21.3861ZM29.2126 21.0766L29.1714 21.2198L29.0569 21.132L29.208 21.0812L29.2126 21.0766ZM27.9901 20.9242L27.9168 21.2337L27.9901 20.9242ZM3.0602 20.9242C3.07393 20.9103 3.10598 20.9473 3.10598 20.9704C3.10598 20.9796 3.1243 20.9889 3.1243 20.9889C3.11972 20.9842 2.85416 21.132 3.0602 20.9242ZM28.1458 20.6147L27.9947 20.9242L28.1458 20.6147ZM5.66078 17.9912L5.63789 18.4439C5.36318 17.9358 5.54632 18.1714 5.66078 17.9912ZM1.79653 15.2245L1.83316 17.6679C1.57219 17.1783 1.56303 15.7003 1.79653 15.2245ZM5.35402 17.3723C5.36776 17.3584 5.39981 17.3954 5.39981 17.4185C5.39981 17.4277 5.41812 17.437 5.41812 17.437C5.41354 17.4323 5.14799 17.5801 5.35402 17.3723ZM0.610699 12.8966C0.610699 12.5409 0.798417 12.8689 0.706847 12.8966C0.706847 12.8966 0.610699 13.2938 0.610699 12.8966ZM0.76179 12.2777C0.775526 12.2638 0.807575 12.3008 0.807575 12.3239C0.807575 12.3331 0.825889 12.3423 0.825889 12.3423C0.821311 12.3377 0.555758 12.4855 0.76179 12.2777ZM6.72757 11.6587L6.68637 11.8019L6.5719 11.7142L6.72299 11.6634L6.72757 11.6587ZM4.12698 8.10683L4.08578 8.25002L3.97132 8.16226L4.12241 8.11145L4.12698 8.10683ZM4.12698 8.10683L4.16361 7.96365L4.27808 8.0514L4.12698 8.10221V8.10683ZM2.90453 7.95441C2.91826 7.94055 2.95031 7.9775 2.95031 8.0006C2.95031 8.00984 2.96863 8.01907 2.96863 8.01907C2.96405 8.01445 2.69849 8.16226 2.90453 7.95441ZM3.36238 7.49252L3.32117 7.63571L3.20671 7.54795L3.3578 7.49714L3.36238 7.49252ZM3.51347 7.3401L3.36238 7.49252L3.51347 7.3401ZM3.66456 7.03063L3.51347 7.3401L3.66456 7.03063ZM3.81565 6.87821L3.66456 7.03063L3.81565 6.87821ZM3.96674 6.72579L3.81565 6.87821L3.96674 6.72579ZM3.96674 6.72579C4.09036 6.27314 3.98505 6.40247 4.42459 6.10686C4.30097 6.55951 4.40627 6.43018 3.96674 6.72579ZM4.73135 5.7974L4.71761 6.07915L4.42917 6.10686L4.73592 5.7974H4.73135ZM5.03811 5.48793L5.02437 5.76968L4.73592 5.7974L5.04268 5.48793H5.03811ZM5.03811 5.48793C5.33113 5.0399 5.75693 4.54568 6.26056 4.40712C5.96754 4.85515 5.54174 5.34937 5.03811 5.48793ZM6.26056 4.40712C6.56275 3.94985 6.96565 3.62191 7.48302 3.47872C7.24036 3.85285 6.66347 4.29626 6.26056 4.40712ZM7.48302 3.47872L7.51965 3.33554L7.63411 3.4233L7.48302 3.4741V3.47872ZM11.4617 30.6469L11.9196 30.6885C12.6476 31.3444 17.0567 31.5107 18.0365 31.0395H18.1875C20.4631 31.312 25.5498 28.1804 27.3033 25.8017C29.5102 22.8133 31.3416 19.3353 31.3416 15.3631C31.1538 15.6587 30.9478 17.3677 30.8196 17.9266C30.5724 18.9981 30.5174 19.3307 30.0184 20.3607L29.6109 20.3746L29.2034 21.0812C29.2675 20.333 29.6887 19.497 29.8535 18.6517C30.0413 17.6956 30.2748 16.9058 29.8169 15.9866C28.9745 16.5917 28.915 19.7325 28.1366 20.6194C28.1641 19.2383 29.2675 17.0536 28.6494 15.7049C28.2831 16.2037 28.2099 17.3261 28.0496 18.0605C27.8848 18.818 27.6513 19.5893 27.3949 20.333C26.4975 22.9196 24.048 25.1828 21.6168 26.3883C19.3917 27.4922 17.9174 27.2982 17.1391 27.8895C15.5732 27.4599 15.1703 27.6585 14.859 27.6262C14.5614 27.5938 14.6667 27.5061 14.218 27.4599C13.3801 27.483 13.8746 27.4599 13.6182 27.2613C13.2886 27.2613 13.5678 27.3029 13.4534 27.1089C13.0276 27.2751 12.0707 26.8687 11.6174 26.6285L11.1092 26.3375C10.1935 25.7925 9.39683 25.3906 8.73753 24.6054C8.38499 24.1851 8.43993 24.2359 7.97292 24.3052C7.75773 23.0812 5.5509 20.9473 5.66536 18.9381C5.69741 18.3746 6.04537 18.5224 5.65162 18.0005C5.65162 16.1298 5.69741 13.7188 6.41623 12.1345L6.87408 11.6726H6.72299L6.87408 11.3631L7.02517 11.0537L7.33193 10.5918C7.50591 9.94976 8.15148 9.10913 8.71006 8.73962L8.61849 8.40244C7.60664 8.47172 7.51507 8.89666 6.75046 9.02599C7.0206 7.36319 9.25032 6.00524 10.5231 4.98447L9.94168 4.81819L11.1641 4.11151L10.8574 4.03761L11.1641 3.95447L11.4663 3.53877C9.20912 3.78819 6.37045 6.36552 4.91907 8.30082C2.27269 11.8343 2.22691 16.5039 2.03004 16.9104L1.98883 15.0721C1.48061 14.6841 2.56572 11.7326 2.81296 11.1183C3.1655 10.2361 4.47037 8.25002 4.58941 7.81584L4.30097 7.7558C6.12779 5.82973 7.05722 4.4764 9.99204 3.07688C11.2511 2.48105 12.5194 2.13001 13.8609 1.88521C16.4798 1.40947 16.6812 1.79745 18.8102 1.60346C17.8579 1.06305 15.3764 1.11386 14.1951 1.294C13.8426 1.34942 12.8261 1.46951 12.5514 1.45104C13.316 1.01686 15.6282 0.947581 16.0952 0.402554C15.2344 -0.599741 11.4388 0.531882 10.3537 0.970675C5.82561 2.82284 2.83585 5.38632 0.963245 10.019C-0.744534 14.2545 -0.163066 21.8341 2.56114 24.8364C3.97132 26.3883 4.58026 27.1597 6.39334 28.3791C7.69363 29.252 9.98746 30.5545 11.4709 30.6562L11.4617 30.6469Z" fill="#219AB5"/>
<path fill-rule="evenodd" clip-rule="evenodd" d="M11.1094 26.3236L11.6176 26.6146C11.6405 25.6123 12.4371 23.2798 12.8172 22.2867C13.655 20.1251 15.5139 17.2014 17.1576 15.5524C17.6795 15.0259 19.749 13.1321 20.0283 12.7349C18.2381 12.8966 15.372 16.6101 14.3372 18.2591C13.6321 19.3861 12.8813 20.9057 12.5333 22.1482C12.3273 22.8872 11.5535 26.0234 11.1094 26.319V26.3236ZM13.6184 27.2474C13.8748 27.4506 13.3803 27.4691 14.2182 27.446C14.4563 26.3051 14.644 25.1273 15.0011 24.0188C15.2895 23.1135 16.0221 21.8433 16.2098 21.0673C15.0698 21.8895 14.0671 25.5707 14.0671 26.9333C13.9114 27.4645 14.209 27.0904 13.623 27.2428L13.6184 27.2474ZM15.1385 37.9031C14.7722 36.3743 13.9984 35.8015 13.3162 32.1757C13.2567 31.8616 13.3299 32.0002 13.2155 31.663C13.0049 31.0303 13.1651 31.506 12.9957 31.2658C12.6981 31.7831 13.4169 34.3281 13.6047 34.8223C13.8656 35.5106 14.5616 37.4921 15.1385 37.9078V37.9031ZM24.3 6.36548C23.1554 4.76735 19.5613 3.1877 17.6108 3.34474L18.5357 3.59416C22.1207 4.45327 23.7643 6.29158 24.3 6.3701V6.36548ZM12.08 2.85052L15.8756 2.42558C16.1228 2.44406 16.2327 2.7489 16.9744 2.23159C15.5139 2.23159 13.1331 2.1115 12.08 2.85052Z" fill="#40586F"/>
<path fill-rule="evenodd" clip-rule="evenodd" d="M24.1622 40.5266L21.8867 38.7114C22.0561 39.7183 23.1687 40.2818 24.1622 40.5266ZM13.4531 27.095C13.6042 26.8594 13.769 25.6539 13.8789 25.2105C14.0346 24.5869 14.3139 24.0142 14.3688 23.3906C13.7553 24.0881 13.4531 26.0511 13.4531 27.095Z" fill="#40586F"/>
<path fill-rule="evenodd" clip-rule="evenodd" d="M19.1124 34.9702C19.1582 35.506 19.2635 35.8339 19.5703 36.2312C19.8175 35.7878 19.5382 35.2751 19.1124 34.9702ZM18.1967 31.0349H18.0456C17.8487 31.5892 17.7755 31.8571 18.3386 31.9957L18.1967 31.0349ZM18.2333 25.8433C18.5126 25.4646 18.6225 24.9149 18.6271 24.4946C18.3157 24.8687 18.1784 25.2383 18.2333 25.8433ZM12.2355 6.58725C12.3317 6.79972 12.0203 7.01681 12.7346 6.79048C12.9223 6.73044 13.1833 6.52721 13.2886 6.44869L12.2355 6.59187V6.58725ZM35.1738 41.917H35.6316L36.0895 41.7646V41.6121C35.4897 41.626 35.5858 41.5475 35.1738 41.9216V41.917ZM27.2209 42.0694L27.9718 42.0556L26.9142 41.7646L27.2209 42.0694ZM20.9484 7.48331C20.6187 7.18771 20.605 7.09071 20.1975 7.28932L20.9484 7.48331ZM26.9142 41.7646L25.9985 41.4551C26.4105 41.8246 26.319 41.7507 26.9142 41.7646ZM15.4404 6.25007L16.3516 6.20389L15.4404 6.08841V6.25007ZM25.2293 10.4163C24.5929 10.4163 24.9317 10.3609 24.6158 10.5687C25.2522 10.5641 24.9134 10.6241 25.2293 10.4163ZM20.1838 3.31709C19.8679 3.10924 20.2067 3.16467 19.5703 3.16467C19.8862 3.37252 19.5474 3.31709 20.1838 3.31709ZM14.3737 23.3861L14.6804 22.7718L14.4011 22.9473L14.3737 23.3861ZM19.5703 3.16005C19.4146 3.05844 19.6298 2.85982 19.1261 3.1231L19.5703 3.16005ZM11.1596 3.16005C11.3061 3.30785 11.6403 2.96606 11.3381 3.07691C11.3335 3.07691 10.9489 2.9522 11.1596 3.16005ZM12.0798 2.85059L11.6311 2.87368C12.1348 3.15081 11.9013 2.96606 12.0798 2.85059ZM6.87866 11.6542L7.02975 11.3447H6.87866V11.6542ZM7.02975 11.3447L7.18542 11.0352H7.02975V11.3447ZM7.33651 10.8828L7.4876 10.5733H7.33651V10.8828ZM11.1596 3.9314V4.08844L11.4663 4.01454L11.1596 3.9314ZM30.7784 14.5733L30.9112 13.9728C30.87 14.0052 30.8334 14.0098 30.8288 14.0652L30.7784 14.5733ZM15.4404 38.5221L15.4817 38.6607L15.5961 38.5729L15.4404 38.5221ZM7.95003 9.95441L7.8081 9.99598L7.89509 10.1068L7.95003 9.95441ZM16.2096 21.072L16.347 21.0305L16.26 20.9196L16.2096 21.072ZM19.1124 34.9702L19.0758 34.827L18.9613 34.9148L19.1124 34.9702ZM24.3136 10.7258L24.1762 10.7673L24.2632 10.8782L24.3136 10.7258ZM14.8315 22.3053L14.9689 22.2683L14.8819 22.1528L14.8315 22.3053ZM25.0782 40.9932L25.1194 41.1318L25.2293 41.044L25.0782 40.9932ZM21.2551 7.64035L21.2964 7.77892L21.4062 7.69116L21.2551 7.64035ZM7.64327 10.4163L7.78063 10.3793L7.69363 10.2639L7.64327 10.4163ZM36.0895 41.6075L36.2314 41.5706L36.1444 41.4551L36.0895 41.6075ZM15.4404 38.5221L15.4038 38.3789L15.2894 38.4667L15.4404 38.5221ZM23.549 5.16926L23.5902 5.30783L23.7001 5.22007L23.549 5.16926Z" fill="#40586F"/>
<path fill-rule="evenodd" clip-rule="evenodd" d="M1.98413 15.0491L2.14438 14.772L1.98413 15.0491Z" fill="#219AB5"/>
</svg>
