<svg width="50" height="50" viewBox="0 0 50 50" fill="none" xmlns="http://www.w3.org/2000/svg">
<g clip-path="url(#clip0_935_187)">
<path d="M37.5647 34.6187L46.4876 43.5395L43.5397 46.4875L34.6188 37.5645C31.2995 40.2254 27.1709 41.6727 22.9167 41.6666C12.5667 41.6666 4.16675 33.2666 4.16675 22.9166C4.16675 12.5666 12.5667 4.16663 22.9167 4.16663C33.2667 4.16663 41.6667 12.5666 41.6667 22.9166C41.6728 27.1708 40.2255 31.2994 37.5647 34.6187ZM33.3855 33.0729C36.0295 30.3539 37.5061 26.7092 37.5001 22.9166C37.5001 14.8583 30.973 8.33329 22.9167 8.33329C14.8584 8.33329 8.33341 14.8583 8.33341 22.9166C8.33341 30.9729 14.8584 37.5 22.9167 37.5C26.7093 37.5059 30.354 36.0294 33.073 33.3854L33.3855 33.0729Z" fill="black"/>
</g>
<defs>
<clipPath id="clip0_935_187">
<rect width="50" height="50" fill="white"/>
</clipPath>
</defs>
</svg>
