<svg width="42" height="42" viewBox="0 0 42 42" fill="none" xmlns="http://www.w3.org/2000/svg">
<g clip-path="url(#clip0_149_156)">
<path d="M13.3295 15.246L18.9383 11.172C19.5679 10.7112 20.3337 10.4746 21.1135 10.5C22.0647 10.5237 22.9848 10.8432 23.746 11.414C24.5072 11.9848 25.0716 12.7786 25.3608 13.685C25.6863 14.7053 25.9838 15.3948 26.2533 15.7535C27.0676 16.8399 28.1239 17.7216 29.3384 18.3285C30.5529 18.9354 31.8921 19.251 33.2498 19.25V22.75C31.4426 22.752 29.6574 22.3532 28.0227 21.5825C26.3881 20.8118 24.9446 19.6882 23.7963 18.2928L22.5765 25.214L26.1833 28.2415L30.0735 38.9305L26.7835 40.1275L23.2135 30.3205L17.281 25.3418C16.7942 24.9486 16.4216 24.4321 16.2022 23.8461C15.9827 23.2601 15.9244 22.626 16.0333 22.0098L16.924 16.961L15.7393 17.822L12.017 22.946L9.18555 20.888L13.2998 15.225L13.3295 15.246ZM23.6248 9.625C22.6965 9.625 21.8063 9.25625 21.1499 8.59987C20.4935 7.9435 20.1248 7.05326 20.1248 6.125C20.1248 5.19674 20.4935 4.3065 21.1499 3.65013C21.8063 2.99375 22.6965 2.625 23.6248 2.625C24.5531 2.625 25.4433 2.99375 26.0997 3.65013C26.756 4.3065 27.1248 5.19674 27.1248 6.125C27.1248 7.05326 26.756 7.9435 26.0997 8.59987C25.4433 9.25625 24.5531 9.625 23.6248 9.625ZM18.4238 32.6918L12.7993 39.3943L10.1183 37.1455L15.3263 30.94L16.6318 27.125L19.766 29.75L18.4238 32.6918Z" fill="black"/>
</g>
<defs>
<clipPath id="clip0_149_156">
<rect width="42" height="42" fill="white"/>
</clipPath>
</defs>
</svg>
